<mxfile host="app.diagrams.net" modified="2023-06-01T08:27:19.036Z" agent="Mozilla/5.0 (Windows NT 10.0; Win64; x64) AppleWebKit/537.36 (KHTML, like Gecko) Chrome/113.0.0.0 Safari/537.36" etag="ExGwB-V3eIc6fnYgik37" version="21.3.6" type="device">
  <diagram name="Page-1" id="r4PCnTxxRcRHavYgq4yR">
    <mxGraphModel dx="182" dy="107" grid="0" gridSize="10" guides="1" tooltips="1" connect="1" arrows="1" fold="1" page="1" pageScale="1" pageWidth="827" pageHeight="1169" math="0" shadow="0">
      <root>
        <mxCell id="0" />
        <mxCell id="1" parent="0" />
        <mxCell id="7O3BDqWuoncD80lLXMxI-25" value="" style="group" vertex="1" connectable="0" parent="1">
          <mxGeometry x="320" y="149" width="154" height="103" as="geometry" />
        </mxCell>
        <mxCell id="-Xxs_azRkOscbqEJK34X-1" value="" style="shape=sortShape;perimeter=rhombusPerimeter;whiteSpace=wrap;html=1;" parent="7O3BDqWuoncD80lLXMxI-25" vertex="1">
          <mxGeometry x="60" y="11" width="80" height="80" as="geometry" />
        </mxCell>
        <mxCell id="7O3BDqWuoncD80lLXMxI-22" value="" style="endArrow=block;html=1;rounded=0;endFill=1;endSize=1;startSize=5;strokeWidth=0.5;" edge="1" parent="7O3BDqWuoncD80lLXMxI-25">
          <mxGeometry width="50" height="50" relative="1" as="geometry">
            <mxPoint x="70" y="69" as="sourcePoint" />
            <mxPoint x="90" y="71" as="targetPoint" />
          </mxGeometry>
        </mxCell>
        <mxCell id="-Xxs_azRkOscbqEJK34X-14" style="edgeStyle=orthogonalEdgeStyle;rounded=0;orthogonalLoop=1;jettySize=auto;html=1;exitX=0.5;exitY=1;exitDx=0;exitDy=0;endArrow=none;endFill=0;" parent="7O3BDqWuoncD80lLXMxI-25" source="-Xxs_azRkOscbqEJK34X-1" edge="1">
          <mxGeometry relative="1" as="geometry">
            <mxPoint x="10" y="53" as="targetPoint" />
            <Array as="points">
              <mxPoint x="100" y="103" />
              <mxPoint x="10" y="103" />
            </Array>
          </mxGeometry>
        </mxCell>
        <mxCell id="-Xxs_azRkOscbqEJK34X-16" style="edgeStyle=orthogonalEdgeStyle;rounded=0;orthogonalLoop=1;jettySize=auto;html=1;exitX=0.5;exitY=0;exitDx=0;exitDy=0;endArrow=none;endFill=0;" parent="7O3BDqWuoncD80lLXMxI-25" source="-Xxs_azRkOscbqEJK34X-1" edge="1">
          <mxGeometry relative="1" as="geometry">
            <mxPoint x="10" y="49" as="targetPoint" />
            <Array as="points">
              <mxPoint x="100" />
              <mxPoint x="10" />
            </Array>
          </mxGeometry>
        </mxCell>
        <mxCell id="-Xxs_azRkOscbqEJK34X-4" value="" style="endArrow=none;html=1;rounded=0;" parent="7O3BDqWuoncD80lLXMxI-25" edge="1">
          <mxGeometry width="50" height="50" relative="1" as="geometry">
            <mxPoint x="20" y="49" as="sourcePoint" />
            <mxPoint y="49" as="targetPoint" />
          </mxGeometry>
        </mxCell>
        <mxCell id="-Xxs_azRkOscbqEJK34X-5" value="" style="endArrow=none;html=1;rounded=0;jumpSize=3;endSize=3;strokeWidth=2;" parent="7O3BDqWuoncD80lLXMxI-25" edge="1">
          <mxGeometry width="50" height="50" relative="1" as="geometry">
            <mxPoint x="15" y="52.879999999999995" as="sourcePoint" />
            <mxPoint x="5" y="52.879999999999995" as="targetPoint" />
          </mxGeometry>
        </mxCell>
        <mxCell id="-Xxs_azRkOscbqEJK34X-23" value="" style="ellipse;whiteSpace=wrap;html=1;aspect=fixed;fillColor=#000000;" parent="7O3BDqWuoncD80lLXMxI-25" vertex="1">
          <mxGeometry x="59" y="50" width="2" height="2" as="geometry" />
        </mxCell>
        <mxCell id="-Xxs_azRkOscbqEJK34X-24" value="" style="ellipse;whiteSpace=wrap;html=1;aspect=fixed;fillColor=#000000;" parent="7O3BDqWuoncD80lLXMxI-25" vertex="1">
          <mxGeometry x="139" y="50" width="2" height="2" as="geometry" />
        </mxCell>
        <mxCell id="-Xxs_azRkOscbqEJK34X-25" value="" style="ellipse;whiteSpace=wrap;html=1;aspect=fixed;fillColor=#000000;" parent="7O3BDqWuoncD80lLXMxI-25" vertex="1">
          <mxGeometry x="99" y="90" width="2" height="2" as="geometry" />
        </mxCell>
        <mxCell id="-Xxs_azRkOscbqEJK34X-26" value="" style="ellipse;whiteSpace=wrap;html=1;aspect=fixed;fillColor=#000000;" parent="7O3BDqWuoncD80lLXMxI-25" vertex="1">
          <mxGeometry x="99" y="10" width="2" height="2" as="geometry" />
        </mxCell>
        <mxCell id="-Xxs_azRkOscbqEJK34X-29" value="&lt;font style=&quot;font-size: 7px;&quot;&gt;+&lt;/font&gt;" style="text;html=1;strokeColor=none;fillColor=none;align=center;verticalAlign=middle;whiteSpace=wrap;rounded=0;" parent="7O3BDqWuoncD80lLXMxI-25" vertex="1">
          <mxGeometry x="13" y="36" width="10" height="11" as="geometry" />
        </mxCell>
        <mxCell id="-Xxs_azRkOscbqEJK34X-30" value="&lt;font style=&quot;font-size: 7px;&quot;&gt;&lt;b&gt;âˆ’&lt;/b&gt;&lt;/font&gt;" style="text;html=1;strokeColor=none;fillColor=none;align=center;verticalAlign=middle;whiteSpace=wrap;rounded=0;" parent="7O3BDqWuoncD80lLXMxI-25" vertex="1">
          <mxGeometry x="13" y="50" width="10" height="11" as="geometry" />
        </mxCell>
        <mxCell id="-Xxs_azRkOscbqEJK34X-31" value="&lt;font face=&quot;Times New Roman&quot; style=&quot;&quot;&gt;&lt;i style=&quot;font-size: 7px;&quot;&gt;R&lt;/i&gt;&lt;font style=&quot;font-size: 5.83333px;&quot;&gt;&lt;sub&gt;1&lt;/sub&gt;&lt;/font&gt;&lt;/font&gt;" style="text;html=1;strokeColor=none;fillColor=none;align=center;verticalAlign=middle;whiteSpace=wrap;rounded=0;" parent="7O3BDqWuoncD80lLXMxI-25" vertex="1">
          <mxGeometry x="65" y="18" width="10" height="11" as="geometry" />
        </mxCell>
        <mxCell id="-Xxs_azRkOscbqEJK34X-32" value="&lt;font face=&quot;Times New Roman&quot; style=&quot;&quot;&gt;&lt;span style=&quot;font-style: italic; font-size: 7px;&quot;&gt;R&lt;/span&gt;&lt;font style=&quot;font-size: 5.83333px;&quot;&gt;&lt;sub&gt;2&lt;/sub&gt;&lt;/font&gt;&lt;/font&gt;" style="text;html=1;strokeColor=none;fillColor=none;align=center;verticalAlign=middle;whiteSpace=wrap;rounded=0;" parent="7O3BDqWuoncD80lLXMxI-25" vertex="1">
          <mxGeometry x="66" y="70" width="10" height="11" as="geometry" />
        </mxCell>
        <mxCell id="-Xxs_azRkOscbqEJK34X-33" value="&lt;font face=&quot;Times New Roman&quot; style=&quot;&quot;&gt;&lt;i style=&quot;font-size: 7px;&quot;&gt;R&lt;/i&gt;&lt;span style=&quot;font-size: 5.83333px;&quot;&gt;&lt;sub&gt;3&lt;/sub&gt;&lt;/span&gt;&lt;/font&gt;" style="text;html=1;strokeColor=none;fillColor=none;align=center;verticalAlign=middle;whiteSpace=wrap;rounded=0;" parent="7O3BDqWuoncD80lLXMxI-25" vertex="1">
          <mxGeometry x="123" y="17" width="10" height="11" as="geometry" />
        </mxCell>
        <mxCell id="-Xxs_azRkOscbqEJK34X-34" value="&lt;font face=&quot;Times New Roman&quot; style=&quot;&quot;&gt;&lt;span style=&quot;font-style: italic; font-size: 7px;&quot;&gt;R&lt;/span&gt;&lt;span style=&quot;font-size: 7px;&quot;&gt;&lt;sub&gt;&lt;i&gt;x&lt;/i&gt;&lt;/sub&gt;&lt;/span&gt;&lt;/font&gt;" style="text;html=1;strokeColor=none;fillColor=none;align=center;verticalAlign=middle;whiteSpace=wrap;rounded=0;" parent="7O3BDqWuoncD80lLXMxI-25" vertex="1">
          <mxGeometry x="124" y="70" width="10" height="11" as="geometry" />
        </mxCell>
        <mxCell id="-Xxs_azRkOscbqEJK34X-35" value="&lt;font face=&quot;Times New Roman&quot;&gt;&lt;span style=&quot;font-size: 7px;&quot;&gt;A&lt;/span&gt;&lt;/font&gt;" style="text;html=1;strokeColor=none;fillColor=none;align=center;verticalAlign=middle;whiteSpace=wrap;rounded=0;" parent="7O3BDqWuoncD80lLXMxI-25" vertex="1">
          <mxGeometry x="104" width="10" height="11" as="geometry" />
        </mxCell>
        <mxCell id="-Xxs_azRkOscbqEJK34X-36" value="&lt;font face=&quot;Times New Roman&quot;&gt;&lt;span style=&quot;font-size: 7px;&quot;&gt;B&lt;/span&gt;&lt;/font&gt;" style="text;html=1;strokeColor=none;fillColor=none;align=center;verticalAlign=middle;whiteSpace=wrap;rounded=0;" parent="7O3BDqWuoncD80lLXMxI-25" vertex="1">
          <mxGeometry x="144" y="43" width="10" height="11" as="geometry" />
        </mxCell>
        <mxCell id="-Xxs_azRkOscbqEJK34X-37" value="&lt;font face=&quot;Times New Roman&quot;&gt;&lt;span style=&quot;font-size: 7px;&quot;&gt;C&lt;/span&gt;&lt;/font&gt;" style="text;html=1;strokeColor=none;fillColor=none;align=center;verticalAlign=middle;whiteSpace=wrap;rounded=0;" parent="7O3BDqWuoncD80lLXMxI-25" vertex="1">
          <mxGeometry x="104" y="85.5" width="10" height="11" as="geometry" />
        </mxCell>
        <mxCell id="-Xxs_azRkOscbqEJK34X-38" value="&lt;font face=&quot;Times New Roman&quot;&gt;&lt;span style=&quot;font-size: 7px;&quot;&gt;D&lt;/span&gt;&lt;/font&gt;" style="text;html=1;strokeColor=none;fillColor=none;align=center;verticalAlign=middle;whiteSpace=wrap;rounded=0;" parent="7O3BDqWuoncD80lLXMxI-25" vertex="1">
          <mxGeometry x="46" y="42" width="10" height="11" as="geometry" />
        </mxCell>
        <mxCell id="7O3BDqWuoncD80lLXMxI-11" value="" style="pointerEvents=1;verticalLabelPosition=bottom;shadow=0;dashed=0;align=center;html=1;verticalAlign=top;shape=mxgraph.electrical.resistors.resistor_1;rotation=45;fillColor=#FFFFFF;" vertex="1" parent="7O3BDqWuoncD80lLXMxI-25">
          <mxGeometry x="67" y="68" width="25" height="5" as="geometry" />
        </mxCell>
        <mxCell id="7O3BDqWuoncD80lLXMxI-12" value="" style="pointerEvents=1;verticalLabelPosition=bottom;shadow=0;dashed=0;align=center;html=1;verticalAlign=top;shape=mxgraph.electrical.resistors.resistor_1;rotation=-45;" vertex="1" parent="7O3BDqWuoncD80lLXMxI-25">
          <mxGeometry x="108" y="68" width="25" height="5" as="geometry" />
        </mxCell>
        <mxCell id="7O3BDqWuoncD80lLXMxI-15" value="" style="pointerEvents=1;verticalLabelPosition=bottom;shadow=0;dashed=0;align=center;html=1;verticalAlign=top;shape=mxgraph.electrical.resistors.resistor_1;rotation=-45;" vertex="1" parent="7O3BDqWuoncD80lLXMxI-25">
          <mxGeometry x="68" y="28" width="25" height="5" as="geometry" />
        </mxCell>
        <mxCell id="7O3BDqWuoncD80lLXMxI-16" value="" style="pointerEvents=1;verticalLabelPosition=bottom;shadow=0;dashed=0;align=center;html=1;verticalAlign=top;shape=mxgraph.electrical.resistors.resistor_1;rotation=45;" vertex="1" parent="7O3BDqWuoncD80lLXMxI-25">
          <mxGeometry x="107" y="28" width="25" height="5" as="geometry" />
        </mxCell>
        <mxCell id="7O3BDqWuoncD80lLXMxI-24" value="" style="group" vertex="1" connectable="0" parent="7O3BDqWuoncD80lLXMxI-25">
          <mxGeometry x="93.5" y="43" width="12" height="14" as="geometry" />
        </mxCell>
        <mxCell id="-Xxs_azRkOscbqEJK34X-17" value="" style="ellipse;whiteSpace=wrap;html=1;aspect=fixed;" parent="7O3BDqWuoncD80lLXMxI-24" vertex="1">
          <mxGeometry y="2" width="12" height="12" as="geometry" />
        </mxCell>
        <mxCell id="-Xxs_azRkOscbqEJK34X-39" value="&lt;font face=&quot;Times New Roman&quot;&gt;&lt;span style=&quot;font-size: 7px;&quot;&gt;G&lt;/span&gt;&lt;/font&gt;" style="text;html=1;strokeColor=none;fillColor=none;align=center;verticalAlign=middle;whiteSpace=wrap;rounded=0;" parent="7O3BDqWuoncD80lLXMxI-24" vertex="1">
          <mxGeometry x="0.9" y="0.5" width="10" height="11" as="geometry" />
        </mxCell>
      </root>
    </mxGraphModel>
  </diagram>
</mxfile>
